<?xml version="1.0" encoding="utf-8"?>
<!-- Generator: Adobe Illustrator 22.0.0, SVG Export Plug-In . SVG Version: 6.00 Build 0)  -->
<svg version="1.1" xmlns="http://www.w3.org/2000/svg" xmlns:xlink="http://www.w3.org/1999/xlink" x="0px" y="0px"
	 viewBox="0 0 763.4 228.1" style="enable-background:new 0 0 763.4 228.1;" xml:space="preserve">
<style type="text/css">
	.st0{fill:url(#SVGID_1_);}
	.st1{fill:url(#SVGID_2_);}
	.st2{fill:url(#SVGID_3_);}
	.st3{font-family:'UniSansSemiBold';}
	.st4{font-size:187px;}
</style>
<g id="Layer_1">
	<g>
		<g>
			<linearGradient id="SVGID_1_" gradientUnits="userSpaceOnUse" x1="419.1963" y1="104.0818" x2="715.5889" y2="104.0818">
				<stop  offset="0" style="stop-color:#F8C900"/>
				<stop  offset="0.245" style="stop-color:#E6183B"/>
				<stop  offset="1" style="stop-color:#813CB3"/>
			</linearGradient>
			<path class="st0" d="M520.7,129.7c0,2-0.1,3.8-0.4,5.4c-1.7,10.7-6.4,19.1-13.8,25.2c-7.5,6-18.6,9.1-33.3,9.1h-54V36.9h53.1
				c6.4,0,12.2,0.9,17.5,2.8c5.3,1.9,9.9,4.5,13.7,7.9c3.9,3.4,6.8,7.6,8.8,12.6c2,4.7,3,10,3,15.9c0,0.4,0,0.7,0,1.1
				c0,1.5-0.3,3.2-0.8,5.2c-0.6,2-1.4,4-2.5,6c-1.1,2-2.5,3.9-4.2,5.7c-1.7,1.8-3.7,3.3-6.1,4.6c4.5,2.2,8.1,4.9,10.8,8
				c2.7,3.1,4.7,6.4,6,9.7c1.3,3.4,2,6.7,2.2,9.9C520.7,127.6,520.7,128.7,520.7,129.7z M472.3,88.7c4.1,0,7.2-1.2,9.4-3.6
				c2.1-2.6,3.2-5.4,3.2-8.4c0-3-1.1-5.7-3.2-8c-2-2.4-5.1-3.6-9.4-3.6h-19.4v23.6H472.3z M472.3,140c5,0,8.7-1.4,11.2-4.2
				c2.5-2.8,3.7-5.9,3.7-9.4c0-3.4-1.2-6.5-3.7-9.4c-2.5-2.8-6.2-4.2-11.2-4.2h-19.4V140H472.3z"/>
			<linearGradient id="SVGID_2_" gradientUnits="userSpaceOnUse" x1="419.1963" y1="104.0818" x2="715.5889" y2="104.0818">
				<stop  offset="0" style="stop-color:#F8C900"/>
				<stop  offset="0.245" style="stop-color:#E6183B"/>
				<stop  offset="1" style="stop-color:#813CB3"/>
			</linearGradient>
			<path class="st1" d="M532,106.3c0-6,1.1-11.2,3.4-15.6c2.2-4.4,5.2-8.1,8.9-11.1c3.7-3,7.9-5.2,12.6-6.7
				c4.7-1.5,9.6-2.2,14.6-2.2c4.9,0,9.7,0.7,14.4,2.2c4.7,1.5,9,3.7,12.7,6.7c3.7,3,6.8,6.7,9.1,11.1c2.3,4.4,3.5,9.6,3.5,15.6V137
				c0,5.7-1.1,10.7-3.4,15c-2.2,4.2-5.2,7.8-9,10.7c-3.7,2.9-8,5-12.7,6.5c-4.7,1.4-9.6,2.2-14.6,2.2c-5,0-9.8-0.7-14.6-2.2
				c-4.7-1.5-8.9-3.6-12.6-6.5c-3.7-2.8-6.6-6.4-8.9-10.7c-2.2-4.3-3.4-9.3-3.4-14.9V106.3z M571.4,98.7c-1.9,0-3.8,0.6-5.7,1.9
				c-1.9,1.2-2.9,3-2.9,5.2v31.6c0,2.2,0.9,4,2.7,5.3c1.8,1.3,3.8,2,5.9,2c2.1,0,4.1-0.7,5.9-2c1.8-1.3,2.7-3.1,2.7-5.3v-31.6
				c0-2.2-1-4-2.9-5.2C575.2,99.3,573.3,98.7,571.4,98.7z"/>
			<linearGradient id="SVGID_3_" gradientUnits="userSpaceOnUse" x1="419.1963" y1="104.0818" x2="715.5889" y2="104.0818">
				<stop  offset="0" style="stop-color:#F8C900"/>
				<stop  offset="0.245" style="stop-color:#E6183B"/>
				<stop  offset="1" style="stop-color:#813CB3"/>
			</linearGradient>
			<path class="st2" d="M652,169.3h-33.7l29.5-48.4l-29.7-48.4h34.2l9.9,17l3.9,12.2h0.2l3.6-12.5l9.7-16.6h35.2l-30.3,48.1
				c2.4,3.4,4.9,7.2,7.7,11.4c2.7,4.2,5.5,8.5,8.2,12.9c2.7,4.4,5.4,8.7,8,12.9c2.6,4.2,5,8.1,7.1,11.6h-35.9L669,151.6l-3.2-10.8
				h-0.4l-3.4,11L652,169.3z"/>
		</g>
	</g>
	<text transform="matrix(1 0 0 1 42 169)" class="st3 st4">insta</text>
</g>
<g id="Layer_2">
</g>
</svg>
